<svg xmlns="http://www.w3.org/2000/svg" aria-hidden="true" style="position:absolute;width:0;height:0;overflow:hidden">
  <defs>
    <symbol id="icon-calendar" viewBox="0 0 32 32">
      <path stroke-linecap="round" stroke-linejoin="round" stroke-width="2.88" d="M25.333 5.333H6.666A2.667 2.667 0 0 0 3.999 8v18.667a2.667 2.667 0 0 0 2.667 2.667h18.667A2.667 2.667 0 0 0 28 26.667V8a2.667 2.667 0 0 0-2.667-2.667M21.333 2.667V8M10.667 2.667V8M4 13.333h24"/>
    </symbol>
    <symbol id="icon-check" viewBox="0 0 32 32">
      <path stroke-linecap="round" stroke-linejoin="round" stroke-width="2.182" d="M26.667 9.333 12 24l-6.667-6.667"/>
    </symbol>
    <symbol id="icon-chevron-down" viewBox="0 0 32 32">
      <path stroke-linecap="round" stroke-linejoin="round" stroke-width="3.556" d="m8 12 8 8 8-8"/>
    </symbol>
    <symbol id="icon-cross-small" viewBox="0 0 32 32">
      <path stroke-linecap="round" stroke-linejoin="round" stroke-width="2.909" d="M25.333 6.667 6.666 25.334m0-18.667 18.667 18.667"/>
    </symbol>
    <symbol id="icon-edit-2" viewBox="0 0 32 32">
      <path stroke-linecap="round" stroke-linejoin="round" stroke-width="2.667" d="M22.667 4a3.77 3.77 0 0 1 4.109-.817 3.77 3.77 0 0 1 2.327 3.484 3.78 3.78 0 0 1-1.104 2.666l-18 18-7.333 2 2-7.333z"/>
    </symbol>
    <symbol id="icon-eye" viewBox="0 0 32 32">
      <path stroke-linecap="round" stroke-linejoin="round" stroke-width="2.909" d="M1.332 16S6.665 5.333 15.999 5.333 30.666 16 30.666 16s-5.333 10.667-14.667 10.667S1.332 16 1.332 16"/>
      <path stroke-linecap="round" stroke-linejoin="round" stroke-width="2.909" d="M16 20a4 4 0 1 0 0-8 4 4 0 0 0 0 8"/>
    </symbol>
    <symbol id="icon-eye-off" viewBox="0 0 32 32">
      <path stroke-linecap="round" stroke-linejoin="round" stroke-width="2.909" d="M23.922 23.92a13.43 13.43 0 0 1-7.92 2.747C6.669 26.667 1.335 16 1.335 16a24.6 24.6 0 0 1 6.747-7.92m5.12-2.427a12.2 12.2 0 0 1 2.8-.32C25.335 5.333 30.669 16 30.669 16a24.7 24.7 0 0 1-2.88 4.253m-8.961-1.426a4 4 0 0 1-2.855 1.273 4 4 0 0 1-3.779-2.501 3.995 3.995 0 0 1 .983-4.424M1.335 1.333l29.333 29.333"/>
    </symbol>
    <symbol id="icon-female" viewBox="0 0 32 32">
      <path stroke-linecap="round" stroke-linejoin="round" stroke-width="2" d="M16 17.333a6.667 6.667 0 1 0 0-13.334 6.667 6.667 0 0 0 0 13.334m0 0V28m-4-4h8"/>
    </symbol>
    <symbol id="icon-both-sexes" viewBox="0 0 32 32">
      <path d="M11.694 10.327a4.665 4.665 0 1 0 2.912 3.635q-.02-.131.011-.26c.031-.129.058-.165.11-.236a.67.67 0 0 1 .696-.254.67.67 0 0 1 .501.546 5.99 5.99 0 0 1-3.514 6.403 5.997 5.997 0 1 1-.232-11.077.665.665 0 0 1 .433.609.67.67 0 0 1-.403.628.67.67 0 0 1-.515.006z"/>
      <path d="M9.331 26v-5.331a.665.665 0 1 1 1.332 0V26a.665.665 0 1 1-1.332 0"/>
      <path d="M7.332 22.668a.665.665 0 0 1 .666-.666h3.998a.665.665 0 1 1 0 1.332H7.998a.665.665 0 0 1-.666-.666m11.93-12.486a4.65 4.65 0 0 0-4.297.943 4.7 4.7 0 0 0-1.315 1.848 4.65 4.65 0 0 0-.288 2.249.67.67 0 0 1-.335.663.665.665 0 0 1-.989-.507 5.997 5.997 0 1 1 3.582 4.801q-.121-.053-.214-.147c-.093-.094-.109-.137-.141-.218a.668.668 0 0 1 .883-.859 4.665 4.665 0 1 0 3.115-8.773z"/>
      <path d="M21.855 11.477a.665.665 0 0 1 0-.942l4.998-4.998a.66.66 0 0 1 .473-.203.66.66 0 0 1 .477.196.67.67 0 0 1 .196.477.67.67 0 0 1-.203.473l-4.998 4.998a.667.667 0 0 1-.942 0z"/>
      <path d="M27.273 10.007a.67.67 0 0 1-.657-.675l.033-2.648-2.648.033a.67.67 0 0 1-.675-.658.67.67 0 0 1 .658-.675L28 5.333l-.051 4.016a.65.65 0 0 1-.201.468q-.095.092-.218.142a.5.5 0 0 1-.256.047z"/>
    </symbol>
    <symbol id="icon-heart" viewBox="0 0 32 32">
      <path stroke-linecap="round" stroke-linejoin="round" stroke-width="2.667" d="M27.788 6.147a7.35 7.35 0 0 0-5.187-2.15 7.33 7.33 0 0 0-5.187 2.15L16.001 7.56l-1.413-1.413a7.333 7.333 0 0 0-10.374 0 7.333 7.333 0 0 0 0 10.374l11.787 11.787 11.787-11.787a7.35 7.35 0 0 0 2.149-5.187 7.33 7.33 0 0 0-2.149-5.187"/>
    </symbol>
    <symbol id="icon-cat-footprint" viewBox="0 0 32 32">
      <path d="M12.5 5c-1.07 0-2.002.608-2.594 1.438S9 8.34 9 9.5s.314 2.233.906 3.063S11.43 14 12.5 14s2.002-.608 2.594-1.438S16 10.66 16 9.5s-.314-2.233-.906-3.063S13.57 5 12.5 5M16 9.5c0 1.16.314 2.233.906 3.063S18.431 14 19.5 14c1.07 0 2.002-.608 2.594-1.438S23 10.66 23 9.5s-.314-2.233-.906-3.063S20.57 5 19.5 5s-2.002.608-2.594 1.438S16 8.34 16 9.5M12.5 7c.312 0 .656.156.97.594.31.437.53 1.133.53 1.906s-.22 1.47-.53 1.906c-.314.438-.658.594-.97.594s-.656-.156-.97-.594c-.31-.437-.53-1.133-.53-1.906s.22-1.47.53-1.906c.314-.438.658-.594.97-.594m7 0c.312 0 .656.156.97.594.31.437.53 1.133.53 1.906s-.22 1.47-.53 1.906c-.314.438-.658.594-.97.594s-.656-.156-.97-.594c-.31-.437-.53-1.133-.53-1.906s.22-1.47.53-1.906c.314-.438.658-.594.97-.594m-12 5c-1.07 0-2.002.608-2.594 1.438S4 15.34 4 16.5s.314 2.233.906 3.063S6.43 21 7.5 21s2.002-.608 2.594-1.438S11 17.66 11 16.5s-.314-2.233-.906-3.063S8.57 12 7.5 12m17 0c-1.07 0-2.002.608-2.594 1.438S21 15.34 21 16.5s.314 2.233.906 3.063S23.43 21 24.5 21s2.002-.608 2.594-1.438S28 17.66 28 16.5s-.314-2.233-.906-3.063S25.57 12 24.5 12m-17 2c.312 0 .656.156.97.594.31.437.53 1.133.53 1.906s-.22 1.47-.53 1.906c-.314.438-.658.594-.97.594s-.656-.156-.97-.594C6.22 17.97 6 17.273 6 16.5s.22-1.47.53-1.906c.314-.438.658-.594.97-.594m17 0c.312 0 .656.156.97.594.31.437.53 1.133.53 1.906s-.22 1.47-.53 1.906c-.314.438-.658.594-.97.594s-.656-.156-.97-.594c-.31-.437-.53-1.133-.53-1.906s.22-1.47.53-1.906c.314-.438.658-.594.97-.594M16 16c-1.333 0-2.263.865-2.72 1.625-.454.76-.734 1.392-1 1.656-.153.157-1.118.52-2.124 1.033-.503.257-1.01.6-1.437 1.125-.43.525-.72 1.25-.72 2.063 0 1.92 1.58 3.5 3.5 3.5.866 0 1.77-.28 2.655-.53C15.043 26.216 16 26 16 26s.957.216 1.844.47c.886.25 1.79.53 2.656.53 1.92 0 3.5-1.58 3.5-3.5 0-.794-.293-1.52-.72-2.03-.425-.513-.937-.83-1.436-1.095-1-.53-1.983-.95-2.125-1.094-.24-.237-.51-.89-.97-1.654C18.29 16.86 17.34 16 16 16m0 2c.66 0 .733.16 1.03.656.3.495.524 1.336 1.25 2.063.825.82 1.867 1 2.626 1.404.38.202.67.417.844.625.173.207.25.396.25.75 0 .84-.66 1.5-1.5 1.5-.29 0-1.224-.22-2.094-.47-.87-.247-1.59-.53-2.406-.53s-1.536.283-2.406.53c-.87.25-1.804.47-2.094.47-.84 0-1.5-.66-1.5-1.5 0-.403.084-.61.25-.814s.472-.404.844-.593c.744-.38 1.78-.53 2.625-1.375.733-.737.953-1.605 1.25-2.095.292-.49.362-.625 1.03-.625z"/>
    </symbol>
    <symbol id="icon-logo-3" viewBox="0 0 107 32">
      <path fill="#fff" d="M9.414 25.571q-2.257 0-3.786-1.071c-1.529-1.071-1.786-1.686-2.3-2.914q-.771-1.857-.771-4.157 0-2.328.771-4.171c.771-1.843 1.267-2.195 2.257-2.9q1.5-1.071 3.7-1.071 2.186 0 3.786 1.071 1.614 1.057 2.5 2.9.886 1.829.886 4.171 0 2.315-.871 4.157c-.871 1.842-1.4 2.2-2.457 2.914q-1.585 1.071-3.714 1.071zM1.971 32V9.714h3.043v10.829h.429V32H1.972zm6.915-9.514q1.342 0 2.214-.671c.872-.671 1.009-1.052 1.286-1.814q.429-1.157.429-2.571 0-1.4-.429-2.543-.429-1.157-1.329-1.829-.9-.686-2.286-.686-1.315 0-2.143.643-.828.628-1.229 1.771-.386 1.128-.386 2.643 0 1.5.386 2.643.4 1.143 1.243 1.786.857.629 2.243.629zm16.591 3.085q-2.343 0-4.114-1.014c-1.771-1.014-2.105-1.614-2.771-2.814q-.986-1.8-.986-4.143 0-2.529.971-4.386.972-1.871 2.7-2.9c1.728-1.029 2.486-1.029 4-1.029q2.4 0 4.071 1.129 1.686 1.114 2.5 3.157c.814 2.043.748 2.967.614 4.814h-3.414v-1.257q-.014-2.514-.886-3.671C27.29 12.3 26.667 12.3 25.419 12.3q-2.114 0-3.143 1.314-1.029 1.3-1.029 3.814 0 2.343 1.029 3.629c1.029 1.286 1.686 1.286 3 1.286q1.271 0 2.186-.557.928-.572 1.429-1.643l3.4 1.029q-.886 2.085-2.743 3.243-1.844 1.157-4.071 1.157zm-5.314-7.185v-2.6h10.614v2.6zm23.388 6.757a14 14 0 0 1-3 .243q-1.457-.028-2.614-.529a3.63 3.63 0 0 1-1.757-1.614q-.528-1-.557-2.043c-.029-1.043-.029-1.481-.029-2.357V5.429h3.429v13.214q0 .928.014 1.629.028.7.3 1.143.515.857 1.643.957c1.128.1 1.61.029 2.571-.114v2.886zM32.793 12.414v-2.7H43.55v2.7zm13.218 12.729v-21h3.443v21z" style="fill:var(--color1, #fff)"/>
      <path fill="#f6b83d" d="M63.708 10.679c-1.874-2.212-4.998-2.807-7.346-.782s-2.678 5.413-.835 7.809c1.181 1.535 4.205 4.38 6.227 6.228.672.614 1.008.921 1.41 1.044.346.106.741.106 1.087 0 .402-.123.738-.43 1.41-1.044 2.022-1.848 5.046-4.693 6.227-6.228 1.843-2.396 1.553-5.804-.835-7.809s-5.472-1.431-7.346.782z" style="fill:var(--color2, #f6b83d)"/>
      <path fill="#fff" d="M81.6 25.143 76 9.714h3.443L83.329 20.9 87.2 9.714h3.457l-5.6 15.429zm16.934.428q-2.343 0-4.114-1.014c-1.771-1.014-2.105-1.614-2.771-2.814q-.986-1.8-.986-4.143 0-2.529.971-4.386.972-1.871 2.7-2.9c1.728-1.029 2.486-1.029 4-1.029q2.4 0 4.071 1.129 1.686 1.114 2.5 3.157c.814 2.043.748 2.967.614 4.814h-3.414v-1.257q-.014-2.514-.886-3.671c-.872-1.157-1.495-1.157-2.743-1.157q-2.114 0-3.143 1.314-1.029 1.3-1.029 3.814 0 2.343 1.029 3.629c1.029 1.286 1.686 1.286 3 1.286q1.271 0 2.186-.557.928-.572 1.429-1.643l3.4 1.029q-.886 2.085-2.743 3.243-1.844 1.157-4.071 1.157zm-5.314-7.185v-2.6h10.614v2.6z" style="fill:var(--color1, #fff)"/>
    </symbol>
    <symbol id="icon-logo-1" viewBox="0 0 106 32">
      <path fill="#262626" d="M9.169 25.461q-2.198 0-3.687-1.043c-1.489-1.043-1.739-1.642-2.24-2.838q-.751-1.808-.751-4.049 0-2.268.751-4.063c.751-1.795 1.234-2.138 2.198-2.824q1.461-1.043 3.603-1.043 2.129 0 3.687 1.043 1.572 1.03 2.435 2.824.863 1.781.863 4.063 0 2.254-.849 4.049c-.849 1.795-1.363 2.143-2.393 2.838q-1.544 1.044-3.617 1.043M1.92 31.722V10.018h2.963v10.546H5.3v11.158zm6.734-9.266q1.308 0 2.157-.654c.849-.654.983-1.025 1.252-1.767q.417-1.127.417-2.504 0-1.364-.417-2.477-.417-1.127-1.294-1.781-.876-.668-2.226-.668-1.28 0-2.087.626-.807.612-1.197 1.725-.376 1.1-.376 2.574 0 1.461.376 2.574.39 1.113 1.21 1.739.836.612 2.184.612zm16.159 3.005q-2.282 0-4.007-.988c-1.725-.988-2.05-1.572-2.699-2.741q-.96-1.754-.96-4.035 0-2.462.946-4.271.946-1.823 2.63-2.824C22.407 9.601 23.144 9.6 24.619 9.6q2.337 0 3.965 1.099 1.642 1.085 2.435 3.075c.793 1.99.728 2.889.598 4.689h-3.325v-1.224q-.014-2.448-.863-3.576c-.849-1.128-1.456-1.127-2.671-1.127q-2.06 0-3.061 1.28-1.002 1.266-1.002 3.715 0 2.282 1.002 3.534c1.002 1.252 1.642 1.252 2.922 1.252q1.239 0 2.129-.543.905-.556 1.391-1.6l3.311 1.002q-.862 2.031-2.671 3.158a7.3 7.3 0 0 1-3.965 1.127zm-5.176-6.998v-2.532h10.337v2.532zm22.778 6.58q-1.489.277-2.922.237-1.42-.027-2.546-.515a3.53 3.53 0 0 1-1.711-1.572q-.514-.973-.543-1.99c-.029-1.017-.028-1.442-.028-2.296V5.843h3.339v12.87q0 .905.014 1.586.028.682.292 1.113.5.835 1.6.932c1.1.097 1.567.028 2.504-.111zM31.938 12.647v-2.63h10.477v2.63zm12.873 12.396V4.591h3.353v20.452z" style="fill:var(--color3, #262626)"/>
      <path fill="#f6b83d" d="M63.298 9.762c-1.891-2.233-5.046-2.834-7.416-.789s-2.704 5.464-.843 7.883c1.192 1.549 4.245 4.422 6.286 6.287.678.62 1.017.93 1.424 1.054.349.107.748.107 1.097 0 .406-.124.745-.434 1.424-1.054 2.041-1.865 5.094-4.738 6.286-6.287 1.861-2.419 1.568-5.86-.842-7.883s-5.524-1.444-7.416.789" style="fill:var(--color2, #f6b83d)"/>
      <path fill="#262626" d="m81.141 25.043-5.454-15.026h3.353l3.784 10.894 3.77-10.894h3.367l-5.454 15.026zm16.493.418q-2.282 0-4.007-.988c-1.725-.988-2.05-1.572-2.699-2.741q-.96-1.754-.96-4.035 0-2.462.946-4.271.946-1.823 2.63-2.824C95.228 9.601 95.965 9.6 97.44 9.6q2.337 0 3.965 1.099 1.641 1.085 2.435 3.075c.794 1.99.728 2.889.598 4.689h-3.325v-1.224q-.014-2.448-.863-3.576c-.849-1.128-1.456-1.127-2.671-1.127q-2.06 0-3.061 1.28-1.002 1.266-1.002 3.715 0 2.282 1.002 3.534c1.002 1.252 1.642 1.252 2.922 1.252q1.238 0 2.129-.543.905-.556 1.391-1.6l3.311 1.002q-.863 2.031-2.671 3.158a7.3 7.3 0 0 1-3.965 1.127zm-5.176-6.998v-2.532h10.337v2.532z" style="fill:var(--color3, #262626)"/>
    </symbol>
    <symbol id="icon-logo-2" viewBox="0 0 106 32">
      <path fill="#fff" d="M9.169 25.461q-2.198 0-3.687-1.043c-1.489-1.043-1.739-1.642-2.24-2.838q-.751-1.808-.751-4.049 0-2.268.751-4.063c.751-1.795 1.234-2.138 2.198-2.824q1.461-1.043 3.603-1.043 2.129 0 3.687 1.043 1.572 1.03 2.435 2.824.863 1.781.863 4.063 0 2.254-.849 4.049c-.849 1.795-1.363 2.143-2.393 2.838q-1.544 1.044-3.617 1.043M1.92 31.722V10.018h2.963v10.546H5.3v11.158zm6.734-9.266q1.308 0 2.157-.654c.849-.654.983-1.025 1.252-1.767q.417-1.127.417-2.504 0-1.364-.417-2.477-.417-1.127-1.294-1.781-.876-.668-2.226-.668-1.28 0-2.087.626-.807.612-1.197 1.725-.376 1.1-.376 2.574 0 1.461.376 2.574.39 1.113 1.21 1.739.836.612 2.184.612zm16.159 3.005q-2.282 0-4.007-.988c-1.725-.988-2.05-1.572-2.699-2.741q-.96-1.754-.96-4.035 0-2.462.946-4.271.946-1.823 2.63-2.824C22.407 9.601 23.144 9.6 24.619 9.6q2.337 0 3.965 1.099 1.642 1.085 2.435 3.075c.793 1.99.728 2.889.598 4.689h-3.325v-1.224q-.014-2.448-.863-3.576c-.849-1.128-1.456-1.127-2.671-1.127q-2.06 0-3.061 1.28-1.002 1.266-1.002 3.715 0 2.282 1.002 3.534c1.002 1.252 1.642 1.252 2.922 1.252q1.239 0 2.129-.543.905-.556 1.391-1.6l3.311 1.002q-.862 2.031-2.671 3.158a7.3 7.3 0 0 1-3.965 1.127zm-5.176-6.998v-2.532h10.337v2.532zm22.778 6.58q-1.489.277-2.922.237-1.42-.027-2.546-.515a3.53 3.53 0 0 1-1.711-1.572q-.514-.973-.543-1.99c-.029-1.017-.028-1.442-.028-2.296V5.843h3.339v12.87q0 .905.014 1.586.028.682.292 1.113.5.835 1.6.932c1.1.097 1.567.028 2.504-.111zM31.938 12.647v-2.63h10.477v2.63zm12.873 12.396V4.591h3.353v20.452zM63.298 9.762c-1.891-2.233-5.046-2.834-7.416-.789s-2.704 5.464-.843 7.883c1.192 1.549 4.245 4.422 6.286 6.287.678.62 1.017.93 1.424 1.054.349.107.748.107 1.097 0 .406-.124.745-.434 1.424-1.054 2.041-1.865 5.094-4.738 6.286-6.287 1.861-2.419 1.568-5.86-.842-7.883s-5.524-1.444-7.416.789M81.141 25.043l-5.454-15.026h3.353l3.784 10.894 3.77-10.894h3.367l-5.454 15.026zm16.493.418q-2.282 0-4.007-.988c-1.725-.988-2.05-1.572-2.699-2.741q-.96-1.754-.96-4.035 0-2.462.946-4.271.946-1.823 2.63-2.824C95.228 9.601 95.965 9.6 97.44 9.6q2.337 0 3.965 1.099 1.641 1.085 2.435 3.075c.794 1.99.728 2.889.598 4.689h-3.325v-1.224q-.014-2.448-.863-3.576c-.849-1.128-1.456-1.127-2.671-1.127q-2.06 0-3.061 1.28-1.002 1.266-1.002 3.715 0 2.282 1.002 3.534c1.002 1.252 1.642 1.252 2.922 1.252q1.238 0 2.129-.543.905-.556 1.391-1.6l3.311 1.002q-.863 2.031-2.671 3.158a7.3 7.3 0 0 1-3.965 1.127zm-5.176-6.998v-2.532h10.337v2.532z" style="fill:var(--color1, #fff)"/>
    </symbol>
    <symbol id="icon-male" viewBox="0 0 32 32">
      <path stroke-linecap="round" stroke-linejoin="round" stroke-width="2" d="M16 14.667a6.667 6.667 0 1 0 0 13.334 6.667 6.667 0 0 0 0-13.334m0 0V4m0 0 5.333 5.333M16 4l-5.333 5.333"/>
    </symbol>
    <symbol id="icon-menu" viewBox="0 0 32 32">
      <path stroke-linecap="round" stroke-linejoin="round" stroke-width="3" d="M4 16h24M4 8h24M4 24h24"/>
    </symbol>
    <symbol id="icon-plus" viewBox="0 0 32 32">
      <path stroke-linecap="round" stroke-linejoin="round" stroke-width="2.667" d="M16 6.667v18.667M6.667 16h18.667"/>
    </symbol>
    <symbol id="icon-search" viewBox="0 0 32 32">
      <path stroke-linecap="round" stroke-linejoin="round" stroke-width="3.556" d="M14.667 25.333c5.891 0 10.667-4.776 10.667-10.667S20.558 3.999 14.667 3.999 4 8.775 4 14.666s4.776 10.667 10.667 10.667M28.001 28l-5.8-5.8"/>
    </symbol>
    <symbol id="icon-star" viewBox="0 0 32 32">
      <path fill="#ffc531" stroke="#ffc531" stroke-width="2.4" d="M19.6 9.395a2.2 2.2 0 0 0 1.57 1.141l7.6 1.313-5.375 5.535a2.2 2.2 0 0 0-.6 1.846l1.098 7.635-6.922-3.402-.234-.1a2.2 2.2 0 0 0-1.473 0l-.234.1-6.924 3.402 1.1-7.635a2.2 2.2 0 0 0-.6-1.846l-5.377-5.535 7.602-1.313a2.2 2.2 0 0 0 1.57-1.141l3.6-6.822 3.6 6.822z" style="fill:var(--color4, #ffc531);stroke:var(--color4, #ffc531)"/>
    </symbol>
    <symbol id="icon-trash" viewBox="0 0 32 32">
      <path stroke-linecap="round" stroke-linejoin="round" stroke-width="2.667" d="M4 8h24M25.333 8v18.667a2.67 2.67 0 0 1-2.667 2.667H9.333a2.67 2.67 0 0 1-2.667-2.667V8m4.001 0V5.333a2.67 2.67 0 0 1 2.667-2.667h5.333a2.67 2.67 0 0 1 2.667 2.667V8M13.333 14.667v8M18.667 14.667v8"/>
    </symbol>
    <symbol id="icon-upload-cloud" viewBox="0 0 32 32">
      <path stroke-linecap="round" stroke-linejoin="round" stroke-width="2.311" d="M16 16v12M27.187 24.52a6.67 6.67 0 0 0 3.27-7.497A6.67 6.67 0 0 0 24.001 12h-1.68a10.659 10.659 0 0 0-10.72-7.99A10.66 10.66 0 0 0 3.38 8.378a10.66 10.66 0 0 0-1.66 9.16 10.7 10.7 0 0 0 2.281 4.196"/>
      <path stroke-linecap="round" stroke-linejoin="round" stroke-width="2.311" d="M21.333 21.333 16 16l-5.333 5.333"/>
    </symbol>
    <symbol id="icon-user" viewBox="0 0 32 32">
      <path stroke-linecap="round" stroke-linejoin="round" stroke-width="2.667" d="M16 20c-4.227 0-7.986 2.041-10.379 5.208-.515.682-.773 1.022-.764 1.483.006.356.23.805.51 1.025.362.284.865.284 1.869.284h17.527c1.005 0 1.507 0 1.869-.284.28-.22.503-.669.51-1.025.008-.461-.249-.801-.764-1.483C23.985 22.041 20.226 20 15.999 20zM16 16a6 6 0 1 0 0-12 6 6 0 0 0 0 12"/>
    </symbol>
  </defs>
</svg>